<?xml version="1.0" standalone="no"?>
<svg version="1.0" xmlns="http://www.w3.org/2000/svg"
 width="100.000000pt" height="100.000000pt" viewBox="0 0 100.000000 100.000000"
 preserveAspectRatio="xMidYMid meet">

<g transform="translate(0.000000,100.000000) scale(0.100000,-0.100000)"
fill="#000000" stroke="none">
<path d="M185 921 c-16 -10 -52 -42 -79 -70 -47 -51 -48 -54 -42 -99 24 -187
336 -539 577 -652 36 -16 85 -33 111 -36 46 -6 48 -6 103 47 65 61 89 101 81
133 -6 24 -193 156 -221 156 -9 0 -38 -11 -65 -25 -27 -14 -54 -25 -60 -25
-16 0 -228 209 -235 231 -3 10 6 40 20 68 14 28 25 57 25 66 0 18 -114 193
-138 213 -22 17 -42 15 -77 -7z"/>
</g>
</svg>
